<svg id="mermaid-1781470853842" width="100%" xmlns="http://www.w3.org/2000/svg" xmlns:xlink="http://www.w3.org/1999/xlink" style="max-width: 772.55859375px;" viewBox="-22.5390625 -8 772.55859375 689" role="graphics-document document" aria-roledescription="flowchart-v2"><style>#mermaid-1781470853842{font-family:Segoe UI,Arial,sans-serif;font-size:16px;fill:#333;}#mermaid-1781470853842 .error-icon{fill:#552222;}#mermaid-1781470853842 .error-text{fill:#552222;stroke:#552222;}#mermaid-1781470853842 .edge-thickness-normal{stroke-width:2px;}#mermaid-1781470853842 .edge-thickness-thick{stroke-width:3.5px;}#mermaid-1781470853842 .edge-pattern-solid{stroke-dasharray:0;}#mermaid-1781470853842 .edge-pattern-dashed{stroke-dasharray:3;}#mermaid-1781470853842 .edge-pattern-dotted{stroke-dasharray:2;}#mermaid-1781470853842 .marker{fill:#333333;stroke:#333333;}#mermaid-1781470853842 .marker.cross{stroke:#333333;}#mermaid-1781470853842 svg{font-family:Segoe UI,Arial,sans-serif;font-size:16px;}#mermaid-1781470853842 .label{font-family:Segoe UI,Arial,sans-serif;color:#333;}#mermaid-1781470853842 .cluster-label text{fill:#333;}#mermaid-1781470853842 .cluster-label span,#mermaid-1781470853842 p{color:#333;}#mermaid-1781470853842 .label text,#mermaid-1781470853842 span,#mermaid-1781470853842 p{fill:#333;color:#333;}#mermaid-1781470853842 .node rect,#mermaid-1781470853842 .node circle,#mermaid-1781470853842 .node ellipse,#mermaid-1781470853842 .node polygon,#mermaid-1781470853842 .node path{fill:#ECECFF;stroke:#9370DB;stroke-width:1px;}#mermaid-1781470853842 .flowchart-label text{text-anchor:middle;}#mermaid-1781470853842 .node .katex path{fill:#000;stroke:#000;stroke-width:1px;}#mermaid-1781470853842 .node .label{text-align:center;}#mermaid-1781470853842 .node.clickable{cursor:pointer;}#mermaid-1781470853842 .arrowheadPath{fill:#333333;}#mermaid-1781470853842 .edgePath .path{stroke:#333333;stroke-width:2.0px;}#mermaid-1781470853842 .flowchart-link{stroke:#333333;fill:none;}#mermaid-1781470853842 .edgeLabel{background-color:#e8e8e8;text-align:center;}#mermaid-1781470853842 .edgeLabel rect{opacity:0.5;background-color:#e8e8e8;fill:#e8e8e8;}#mermaid-1781470853842 .labelBkg{background-color:rgba(232, 232, 232, 0.5);}#mermaid-1781470853842 .cluster rect{fill:#ffffde;stroke:#aaaa33;stroke-width:1px;}#mermaid-1781470853842 .cluster text{fill:#333;}#mermaid-1781470853842 .cluster span,#mermaid-1781470853842 p{color:#333;}#mermaid-1781470853842 div.mermaidTooltip{position:absolute;text-align:center;max-width:200px;padding:2px;font-family:Segoe UI,Arial,sans-serif;font-size:12px;background:hsl(80, 100%, 96.2745098039%);border:1px solid #aaaa33;border-radius:2px;pointer-events:none;z-index:100;}#mermaid-1781470853842 .flowchartTitleText{text-anchor:middle;font-size:18px;fill:#333;}#mermaid-1781470853842 :root{--mermaid-font-family:Segoe UI,Arial,sans-serif;}#mermaid-1781470853842 .lc&gt;*{fill:rgb(238, 244, 255)!important;stroke:rgb(59, 111, 214)!important;color:rgb(19, 41, 75)!important;}#mermaid-1781470853842 .lc span{fill:rgb(238, 244, 255)!important;stroke:rgb(59, 111, 214)!important;color:rgb(19, 41, 75)!important;}#mermaid-1781470853842 .lc tspan{fill:rgb(19, 41, 75)!important;}#mermaid-1781470853842 .ch&gt;*{fill:rgb(255, 246, 230)!important;stroke:rgb(210, 161, 6)!important;color:rgb(61, 46, 5)!important;}#mermaid-1781470853842 .ch span{fill:rgb(255, 246, 230)!important;stroke:rgb(210, 161, 6)!important;color:rgb(61, 46, 5)!important;}#mermaid-1781470853842 .ch tspan{fill:rgb(61, 46, 5)!important;}</style><g><marker id="mermaid-1781470853842_flowchart-pointEnd" class="marker flowchart" viewBox="0 0 10 10" refX="6" refY="5" markerUnits="userSpaceOnUse" markerWidth="12" markerHeight="12" orient="auto"><path d="M 0 0 L 10 5 L 0 10 z" class="arrowMarkerPath" style="stroke-width: 1; stroke-dasharray: 1, 0;"></path></marker><marker id="mermaid-1781470853842_flowchart-pointStart" class="marker flowchart" viewBox="0 0 10 10" refX="4.5" refY="5" markerUnits="userSpaceOnUse" markerWidth="12" markerHeight="12" orient="auto"><path d="M 0 5 L 10 10 L 10 0 z" class="arrowMarkerPath" style="stroke-width: 1; stroke-dasharray: 1, 0;"></path></marker><marker id="mermaid-1781470853842_flowchart-circleEnd" class="marker flowchart" viewBox="0 0 10 10" refX="11" refY="5" markerUnits="userSpaceOnUse" markerWidth="11" markerHeight="11" orient="auto"><circle cx="5" cy="5" r="5" class="arrowMarkerPath" style="stroke-width: 1; stroke-dasharray: 1, 0;"></circle></marker><marker id="mermaid-1781470853842_flowchart-circleStart" class="marker flowchart" viewBox="0 0 10 10" refX="-1" refY="5" markerUnits="userSpaceOnUse" markerWidth="11" markerHeight="11" orient="auto"><circle cx="5" cy="5" r="5" class="arrowMarkerPath" style="stroke-width: 1; stroke-dasharray: 1, 0;"></circle></marker><marker id="mermaid-1781470853842_flowchart-crossEnd" class="marker cross flowchart" viewBox="0 0 11 11" refX="12" refY="5.2" markerUnits="userSpaceOnUse" markerWidth="11" markerHeight="11" orient="auto"><path d="M 1,1 l 9,9 M 10,1 l -9,9" class="arrowMarkerPath" style="stroke-width: 2; stroke-dasharray: 1, 0;"></path></marker><marker id="mermaid-1781470853842_flowchart-crossStart" class="marker cross flowchart" viewBox="0 0 11 11" refX="-1" refY="5.2" markerUnits="userSpaceOnUse" markerWidth="11" markerHeight="11" orient="auto"><path d="M 1,1 l 9,9 M 10,1 l -9,9" class="arrowMarkerPath" style="stroke-width: 2; stroke-dasharray: 1, 0;"></path></marker><g class="root"><g class="clusters"><g class="cluster default flowchart-label" id="PLAN"><rect style="" rx="0" ry="0" x="-14.5390625" y="390" width="187.828125" height="283"></rect><g class="cluster-label" transform="translate(-14.5390625, 390)"><foreignObject width="187.828125" height="21"><div xmlns="http://www.w3.org/1999/xhtml" style="display: inline-block; white-space: nowrap;"><span class="nodeLabel">Главы глобального плана</span></div></foreignObject></g></g><g class="cluster default flowchart-label" id="LCs"><rect style="" rx="0" ry="0" x="178.75" y="0" width="563.26953125" height="562"></rect><g class="cluster-label" transform="translate(269.525390625, 0)"><foreignObject width="381.71875" height="21"><div xmlns="http://www.w3.org/1999/xhtml" style="display: inline-block; white-space: nowrap;"><span class="nodeLabel">Локальные кластеры (хронологический порядок →)</span></div></foreignObject></g></g></g><g class="edgePaths"><path d="M411.236,61L413.989,65.167C416.743,69.333,422.25,77.667,425.004,85.117C427.758,92.567,427.758,99.133,427.758,102.417L427.758,105.7" id="L-L1-L2-0" class=" edge-thickness-normal edge-pattern-solid flowchart-link LS-L1 LE-L2" style="fill:none;" marker-end="url(#mermaid-1781470853842_flowchart-pointEnd)"></path><path d="M449.594,136.106L467.977,142.088C486.359,148.071,523.125,160.035,541.508,169.301C559.891,178.567,559.891,185.133,559.891,188.417L559.891,191.7" id="L-L2-L3-0" class=" edge-thickness-normal edge-pattern-solid flowchart-link LS-L2 LE-L3" style="fill:none;" marker-end="url(#mermaid-1781470853842_flowchart-pointEnd)"></path><path d="M581.727,229.04L589.233,233.867C596.74,238.694,611.753,248.347,619.259,256.457C626.766,264.567,626.766,271.133,626.766,274.417L626.766,277.7" id="L-L3-L4-0" class=" edge-thickness-normal edge-pattern-solid flowchart-link LS-L3 LE-L4" style="fill:none;" marker-end="url(#mermaid-1781470853842_flowchart-pointEnd)"></path><path d="M636.859,319L640.177,324.917C643.495,330.833,650.13,342.667,653.448,354.5C656.766,366.333,656.766,378.167,656.766,387.367C656.766,396.567,656.766,403.133,656.766,406.417L656.766,409.7" id="L-L4-L5-0" class=" edge-thickness-normal edge-pattern-solid flowchart-link LS-L4 LE-L5" style="fill:none;" marker-end="url(#mermaid-1781470853842_flowchart-pointEnd)"></path><path d="M668.662,451L671.415,455.167C674.169,459.333,679.676,467.667,682.43,475.117C685.184,482.567,685.184,489.133,685.184,492.417L685.184,495.7" id="L-L5-L6-0" class=" edge-thickness-normal edge-pattern-solid flowchart-link LS-L5 LE-L6" style="fill:none;" marker-end="url(#mermaid-1781470853842_flowchart-pointEnd)"></path><path d="M69.375,451L69.375,455.167C69.375,459.333,69.375,467.667,69.375,476C69.375,484.333,69.375,492.667,69.375,496.833L69.375,501" id="L-G1-G2-0" class=" edge-thickness-thick edge-pattern-solid flowchart-link LS-G1 LE-G2" style="stroke-width: 0;fill:none;"></path><path d="M69.375,537L69.375,541.167C69.375,545.333,69.375,553.667,69.375,562C69.375,570.333,69.375,578.667,71.313,587C73.251,595.333,77.127,603.667,79.065,607.833L81.003,612" id="L-G2-G3-0" class=" edge-thickness-thick edge-pattern-solid flowchart-link LS-G2 LE-G3" style="stroke-width: 0;fill:none;"></path><path d="M377.504,47.886L349.115,54.238C320.725,60.591,263.947,73.295,235.557,86.814C207.168,100.333,207.168,114.667,207.168,129C207.168,143.333,207.168,157.667,207.168,172C207.168,186.333,207.168,200.667,207.168,215C207.168,229.333,207.168,243.667,207.168,258C207.168,272.333,207.168,286.667,207.168,302.75C207.168,318.833,207.168,336.667,207.168,351.5C207.168,366.333,207.168,378.167,190.775,389.199C174.382,400.231,141.596,410.463,125.202,415.578L108.809,420.694" id="L-L1-G1-0" class=" edge-thickness-normal edge-pattern-solid flowchart-link LS-L1 LE-G1" style="fill:none;" marker-end="url(#mermaid-1781470853842_flowchart-pointEnd)"></path><path d="M405.922,134.154L379.199,140.462C352.477,146.769,299.031,159.385,272.309,172.859C245.586,186.333,245.586,200.667,245.586,215C245.586,229.333,245.586,243.667,245.586,258C245.586,272.333,245.586,286.667,245.586,302.75C245.586,318.833,245.586,336.667,245.586,351.5C245.586,366.333,245.586,378.167,222.805,389.643C200.024,401.118,154.461,412.237,131.68,417.796L108.899,423.355" id="L-L2-G1-0" class=" edge-thickness-normal edge-pattern-solid flowchart-link LS-L2 LE-G1" style="fill:none;" marker-end="url(#mermaid-1781470853842_flowchart-pointEnd)"></path><path d="M538.944,233L534.095,237.167C529.247,241.333,519.549,249.667,514.7,261C509.852,272.333,509.852,286.667,509.852,302.75C509.852,318.833,509.852,336.667,509.852,351.5C509.852,366.333,509.852,378.167,509.852,391.25C509.852,404.333,509.852,418.667,509.852,433C509.852,447.333,509.852,461.667,443.047,475.355C376.243,489.043,242.634,502.086,175.829,508.608L109.025,515.129" id="L-L3-G2-0" class=" edge-thickness-normal edge-pattern-solid flowchart-link LS-L3 LE-G2" style="fill:none;" marker-end="url(#mermaid-1781470853842_flowchart-pointEnd)"></path><path d="M614.372,319L610.298,324.917C606.225,330.833,598.077,342.667,594.003,354.5C589.93,366.333,589.93,378.167,589.93,391.25C589.93,404.333,589.93,418.667,589.93,433C589.93,447.333,589.93,461.667,509.78,475.454C429.63,489.241,269.331,502.483,189.182,509.103L109.032,515.724" id="L-L4-G2-0" class=" edge-thickness-normal edge-pattern-solid flowchart-link LS-L4 LE-G2" style="fill:none;" marker-end="url(#mermaid-1781470853842_flowchart-pointEnd)"></path><path d="M644.87,451L642.116,455.167C639.362,459.333,633.855,467.667,631.101,479C628.348,490.333,628.348,504.667,628.348,519C628.348,533.333,628.348,547.667,538.519,559C448.69,570.333,269.033,578.667,179.204,586.117C89.375,593.567,89.375,600.133,89.375,603.417L89.375,606.7" id="L-L5-G3-0" class=" edge-thickness-normal edge-pattern-solid flowchart-link LS-L5 LE-G3" style="fill:none;" marker-end="url(#mermaid-1781470853842_flowchart-pointEnd)"></path><path d="M685.184,537L685.184,541.167C685.184,545.333,685.184,553.667,589.997,562C494.81,570.333,304.436,578.667,207.297,586.234C110.158,593.801,106.253,600.602,104.301,604.003L102.348,607.404" id="L-L6-G3-0" class=" edge-thickness-normal edge-pattern-solid flowchart-link LS-L6 LE-G3" style="fill:none;" marker-end="url(#mermaid-1781470853842_flowchart-pointEnd)"></path><path d="M604.93,305.186L562.055,313.405C519.18,321.624,433.43,338.062,390.555,352.198C347.68,366.333,347.68,378.167,307.025,390.365C266.37,402.563,185.06,415.126,144.405,421.407L103.75,427.689" id="L-L4-G1-0" class=" edge-thickness-normal edge-pattern-dotted flowchart-link LS-L4 LE-G1" style="fill:none;stroke-width:2px;stroke-dasharray:3;"></path></g><g class="edgeLabels"><g class="edgeLabel"><g class="label" transform="translate(0, 0)"><foreignObject width="0" height="0"><div xmlns="http://www.w3.org/1999/xhtml" style="display: inline-block; white-space: nowrap;"><span class="edgeLabel"></span></div></foreignObject></g></g><g class="edgeLabel"><g class="label" transform="translate(0, 0)"><foreignObject width="0" height="0"><div xmlns="http://www.w3.org/1999/xhtml" style="display: inline-block; white-space: nowrap;"><span class="edgeLabel"></span></div></foreignObject></g></g><g class="edgeLabel"><g class="label" transform="translate(0, 0)"><foreignObject width="0" height="0"><div xmlns="http://www.w3.org/1999/xhtml" style="display: inline-block; white-space: nowrap;"><span class="edgeLabel"></span></div></foreignObject></g></g><g class="edgeLabel"><g class="label" transform="translate(0, 0)"><foreignObject width="0" height="0"><div xmlns="http://www.w3.org/1999/xhtml" style="display: inline-block; white-space: nowrap;"><span class="edgeLabel"></span></div></foreignObject></g></g><g class="edgeLabel"><g class="label" transform="translate(0, 0)"><foreignObject width="0" height="0"><div xmlns="http://www.w3.org/1999/xhtml" style="display: inline-block; white-space: nowrap;"><span class="edgeLabel"></span></div></foreignObject></g></g><g class="edgeLabel"><g class="label" transform="translate(0, 0)"><foreignObject width="0" height="0"><div xmlns="http://www.w3.org/1999/xhtml" style="display: inline-block; white-space: nowrap;"><span class="edgeLabel"></span></div></foreignObject></g></g><g class="edgeLabel"><g class="label" transform="translate(0, 0)"><foreignObject width="0" height="0"><div xmlns="http://www.w3.org/1999/xhtml" style="display: inline-block; white-space: nowrap;"><span class="edgeLabel"></span></div></foreignObject></g></g><g class="edgeLabel"><g class="label" transform="translate(0, 0)"><foreignObject width="0" height="0"><div xmlns="http://www.w3.org/1999/xhtml" style="display: inline-block; white-space: nowrap;"><span class="edgeLabel"></span></div></foreignObject></g></g><g class="edgeLabel"><g class="label" transform="translate(0, 0)"><foreignObject width="0" height="0"><div xmlns="http://www.w3.org/1999/xhtml" style="display: inline-block; white-space: nowrap;"><span class="edgeLabel"></span></div></foreignObject></g></g><g class="edgeLabel" transform="translate(509.8515625, 354.5)"><g class="label" transform="translate(-60.078125, -10.5)"><foreignObject width="120.15625" height="21"><div xmlns="http://www.w3.org/1999/xhtml" style="display: inline-block; white-space: nowrap;"><span class="edgeLabel">по косинусу (e5)</span></div></foreignObject></g></g><g class="edgeLabel"><g class="label" transform="translate(0, 0)"><foreignObject width="0" height="0"><div xmlns="http://www.w3.org/1999/xhtml" style="display: inline-block; white-space: nowrap;"><span class="edgeLabel"></span></div></foreignObject></g></g><g class="edgeLabel"><g class="label" transform="translate(0, 0)"><foreignObject width="0" height="0"><div xmlns="http://www.w3.org/1999/xhtml" style="display: inline-block; white-space: nowrap;"><span class="edgeLabel"></span></div></foreignObject></g></g><g class="edgeLabel"><g class="label" transform="translate(0, 0)"><foreignObject width="0" height="0"><div xmlns="http://www.w3.org/1999/xhtml" style="display: inline-block; white-space: nowrap;"><span class="edgeLabel"></span></div></foreignObject></g></g><g class="edgeLabel" transform="translate(347.6796875, 354.5)"><g class="label" transform="translate(-82.09375, -10.5)"><foreignObject width="164.1875" height="21"><div xmlns="http://www.w3.org/1999/xhtml" style="display: inline-block; white-space: nowrap;"><span class="edgeLabel">argmax назад → игнор</span></div></foreignObject></g></g></g><g class="nodes"><g class="node default ch flowchart-label" id="flowchart-G3-8" data-node="true" data-id="G3" transform="translate(89.375, 630)"><rect class="basic label-container" style="" rx="0" ry="0" x="-34.375" y="-18" width="68.75" height="36"></rect><g class="label" style="" transform="translate(-26.875, -10.5)"><rect></rect><foreignObject width="53.75" height="21"><div xmlns="http://www.w3.org/1999/xhtml" style="display: inline-block; white-space: nowrap;"><span class="nodeLabel">Глава 3</span></div></foreignObject></g></g><g class="node default ch flowchart-label" id="flowchart-G2-7" data-node="true" data-id="G2" transform="translate(69.375, 519)"><rect class="basic label-container" style="" rx="0" ry="0" x="-34.375" y="-18" width="68.75" height="36"></rect><g class="label" style="" transform="translate(-26.875, -10.5)"><rect></rect><foreignObject width="53.75" height="21"><div xmlns="http://www.w3.org/1999/xhtml" style="display: inline-block; white-space: nowrap;"><span class="nodeLabel">Глава 2</span></div></foreignObject></g></g><g class="node default ch flowchart-label" id="flowchart-G1-6" data-node="true" data-id="G1" transform="translate(69.375, 433)"><rect class="basic label-container" style="" rx="0" ry="0" x="-34.375" y="-18" width="68.75" height="36"></rect><g class="label" style="" transform="translate(-26.875, -10.5)"><rect></rect><foreignObject width="53.75" height="21"><div xmlns="http://www.w3.org/1999/xhtml" style="display: inline-block; white-space: nowrap;"><span class="nodeLabel">Глава 1</span></div></foreignObject></g></g><g class="node default lc flowchart-label" id="flowchart-L6-5" data-node="true" data-id="L6" transform="translate(685.18359375, 519)"><rect class="basic label-container" style="" rx="0" ry="0" x="-21.8359375" y="-18" width="43.671875" height="36"></rect><g class="label" style="" transform="translate(-14.3359375, -10.5)"><rect></rect><foreignObject width="28.671875" height="21"><div xmlns="http://www.w3.org/1999/xhtml" style="display: inline-block; white-space: nowrap;"><span class="nodeLabel">ЛК6</span></div></foreignObject></g></g><g class="node default lc flowchart-label" id="flowchart-L5-4" data-node="true" data-id="L5" transform="translate(656.765625, 433)"><rect class="basic label-container" style="" rx="0" ry="0" x="-21.8359375" y="-18" width="43.671875" height="36"></rect><g class="label" style="" transform="translate(-14.3359375, -10.5)"><rect></rect><foreignObject width="28.671875" height="21"><div xmlns="http://www.w3.org/1999/xhtml" style="display: inline-block; white-space: nowrap;"><span class="nodeLabel">ЛК5</span></div></foreignObject></g></g><g class="node default lc flowchart-label" id="flowchart-L4-3" data-node="true" data-id="L4" transform="translate(626.765625, 301)"><rect class="basic label-container" style="" rx="0" ry="0" x="-21.8359375" y="-18" width="43.671875" height="36"></rect><g class="label" style="" transform="translate(-14.3359375, -10.5)"><rect></rect><foreignObject width="28.671875" height="21"><div xmlns="http://www.w3.org/1999/xhtml" style="display: inline-block; white-space: nowrap;"><span class="nodeLabel">ЛК4</span></div></foreignObject></g></g><g class="node default lc flowchart-label" id="flowchart-L3-2" data-node="true" data-id="L3" transform="translate(559.890625, 215)"><rect class="basic label-container" style="" rx="0" ry="0" x="-21.8359375" y="-18" width="43.671875" height="36"></rect><g class="label" style="" transform="translate(-14.3359375, -10.5)"><rect></rect><foreignObject width="28.671875" height="21"><div xmlns="http://www.w3.org/1999/xhtml" style="display: inline-block; white-space: nowrap;"><span class="nodeLabel">ЛК3</span></div></foreignObject></g></g><g class="node default lc flowchart-label" id="flowchart-L2-1" data-node="true" data-id="L2" transform="translate(427.7578125, 129)"><rect class="basic label-container" style="" rx="0" ry="0" x="-21.8359375" y="-18" width="43.671875" height="36"></rect><g class="label" style="" transform="translate(-14.3359375, -10.5)"><rect></rect><foreignObject width="28.671875" height="21"><div xmlns="http://www.w3.org/1999/xhtml" style="display: inline-block; white-space: nowrap;"><span class="nodeLabel">ЛК2</span></div></foreignObject></g></g><g class="node default lc flowchart-label" id="flowchart-L1-0" data-node="true" data-id="L1" transform="translate(399.33984375, 43)"><rect class="basic label-container" style="" rx="0" ry="0" x="-21.8359375" y="-18" width="43.671875" height="36"></rect><g class="label" style="" transform="translate(-14.3359375, -10.5)"><rect></rect><foreignObject width="28.671875" height="21"><div xmlns="http://www.w3.org/1999/xhtml" style="display: inline-block; white-space: nowrap;"><span class="nodeLabel">ЛК1</span></div></foreignObject></g></g></g></g></g></svg>